<svg xmlns="http://www.w3.org/2000/svg" id="Layer_2" data-name="Layer 2" viewBox="0 0 945.02 361.62"><defs><style>      .cls-1 {        fill: #017c07;      }      .cls-2 {        fill: #fff;      }    </style></defs><g id="Layer_1-2" data-name="Layer 1"><g><rect class="cls-1" width="945.02" height="361.62" rx="65.09" ry="65.09"></rect><g><g><circle class="cls-2" cx="236.77" cy="180.81" r="120.65"></circle><path class="cls-1" d="M291.53,149.32c0-4.72-4.04-8.76-8.76-8.76h-16.18l-37.07-42.46c-3.37-4.04-8.76-5.39-14.15-4.04l-12.81,4.04c-2.02.68-2.7,3.37-1.35,4.72l40.44,38.42h-61.34c-2.02,0-3.37,1.35-3.37,3.37v6.74c0,4.72,4.04,8.76,8.76,8.76h9.44v32.35c0,24.26,12.81,38.42,34.38,38.42,6.74,0,12.13-.68,18.87-3.37v21.57c0,6.07,4.72,10.78,10.78,10.78h9.44c2.02,0,4.04-2.02,4.04-4.04v-96.39h15.5c2.02,0,3.37-1.35,3.37-3.37v-6.74ZM248.39,207.29c-4.04,2.02-9.44,2.7-13.48,2.7-10.78,0-16.18-5.39-16.18-17.53v-32.35h29.66v47.18Z"></path></g><g><path class="cls-2" d="M390.43,91.86h33.66c6.84,0,12.51,1.47,17.01,4.4,4.5,2.94,7.88,6.6,10.14,10.98,2.25,4.39,3.38,9.11,3.38,14.18s-1.15,9.79-3.44,14.18c-2.29,4.39-5.69,8.02-10.2,10.92-4.51,2.9-10.1,4.34-16.77,4.34h-16.17v26.43h-17.62v-85.43ZM424.09,134.21c2.9,0,5.31-.6,7.24-1.81s3.38-2.71,4.34-4.52c.97-1.81,1.45-3.78,1.45-5.91s-.48-4.1-1.45-5.91c-.97-1.81-2.41-3.32-4.34-4.52-1.93-1.21-4.34-1.81-7.24-1.81h-16.05v24.49h16.05Z"></path><path class="cls-2" d="M490.82,113.58c2.97,0,5.85.48,8.63,1.45,2.78.97,5.23,2.37,7.36,4.22,2.13,1.85,3.84,4.18,5.13,7,1.29,2.82,1.93,6.07,1.93,9.77v41.27h-16.65v-41.39c0-1.93-.62-3.46-1.87-4.59-1.25-1.13-2.71-1.89-4.4-2.29-1.05-.16-2.05-.24-3.02-.24-.8,0-1.65.08-2.53.24-1.85.24-3.42.72-4.71,1.45v46.82h-16.77v-85.43h16.77v23.65c1.61-.64,3.28-1.13,5.01-1.45,1.73-.32,3.44-.48,5.13-.48Z"></path><path class="cls-2" d="M524.72,135.9c0-3.7.72-6.94,2.17-9.71s3.34-5.09,5.67-6.94c2.33-1.85,5.01-3.26,8.02-4.22,3.02-.97,6.09-1.45,9.23-1.45s6.19.48,9.17,1.45c2.97.97,5.63,2.37,7.96,4.22,2.33,1.85,4.22,4.16,5.67,6.94s2.17,6.01,2.17,9.71v20.39c0,3.78-.72,7.06-2.17,9.83s-3.34,5.07-5.67,6.88c-2.33,1.81-4.99,3.18-7.96,4.1-2.98.92-6.03,1.39-9.17,1.39s-6.21-.46-9.23-1.39c-3.02-.92-5.69-2.29-8.02-4.1-2.33-1.81-4.22-4.1-5.67-6.88s-2.17-6.05-2.17-9.83v-20.39ZM549.82,128.66c-2.01,0-3.9.52-5.67,1.57-1.77,1.05-2.65,2.58-2.65,4.59v21.84c0,2.01.88,3.64,2.65,4.89,1.77,1.25,3.66,1.87,5.67,1.87s3.78-.62,5.55-1.87c1.77-1.25,2.65-2.88,2.65-4.89v-21.84c0-2.01-.89-3.54-2.65-4.59-1.77-1.04-3.62-1.57-5.55-1.57Z"></path><path class="cls-2" d="M608.46,113.58c3.54,0,6.94.42,10.2,1.27,3.26.84,6.15,2.17,8.69,3.98,2.53,1.81,4.56,4.16,6.09,7.06,1.53,2.9,2.29,6.4,2.29,10.5v40.9h-16.65v-40.3c0-2.9-.99-5.01-2.96-6.33-1.97-1.33-4.16-1.99-6.58-1.99-2.58,0-4.87.56-6.88,1.69v46.94h-16.77v-58.28c3.46-1.69,7.12-3.02,10.98-3.98,3.86-.97,7.72-1.45,11.58-1.45Z"></path><path class="cls-2" d="M671.69,178.5c-3.14,0-6.21-.46-9.23-1.39-3.02-.92-5.71-2.31-8.08-4.16-2.37-1.85-4.28-4.16-5.73-6.94-1.45-2.78-2.17-6.01-2.17-9.71v-20.63c0-3.78.74-7.06,2.23-9.83,1.49-2.78,3.42-5.07,5.79-6.88,2.37-1.81,5.09-3.16,8.14-4.04,3.06-.88,6.15-1.33,9.29-1.33s6.03.4,8.93,1.21c2.9.81,5.47,2.07,7.72,3.8,2.25,1.73,4.06,3.94,5.43,6.64,1.37,2.7,2.05,5.93,2.05,9.71v15.98c0,1.3-1.05,2.36-2.36,2.36h-30.34v2.78c0,2.41.97,4.24,2.9,5.49,1.93,1.25,4.1,1.87,6.52,1.87,1.93,0,3.8-.38,5.61-1.15,1.14-.48,2.12-1.13,2.92-1.95s2.13-.97,3.08-.28l7.39,5.36c1.02.74,1.29,2.17.58,3.21-.95,1.41-2.03,2.63-3.24,3.67-1.73,1.49-3.58,2.7-5.55,3.62-1.97.93-3.98,1.59-6.03,1.99-2.05.4-4,.6-5.85.6ZM680.25,135.18c0-2.17-.84-3.8-2.53-4.89-1.69-1.09-3.58-1.63-5.67-1.63s-4.16.54-5.97,1.63c-1.81,1.09-2.72,2.76-2.72,5.01v5.55h16.89v-5.67Z"></path><path class="cls-2" d="M707.52,91.86h33.67c6.84,0,12.51,1.47,17.01,4.4,4.5,2.94,7.88,6.6,10.14,10.98,2.25,4.39,3.38,9.11,3.38,14.18s-1.15,9.79-3.44,14.18c-2.29,4.39-5.69,8.02-10.2,10.92-4.51,2.9-10.1,4.34-16.77,4.34h-16.17v26.43h-17.62v-85.43ZM741.19,134.21c2.9,0,5.31-.6,7.24-1.81s3.38-2.71,4.34-4.52c.97-1.81,1.45-3.78,1.45-5.91s-.48-4.1-1.45-5.91c-.97-1.81-2.41-3.32-4.34-4.52-1.93-1.21-4.34-1.81-7.24-1.81h-16.05v24.49h16.05Z"></path><path class="cls-2" d="M804.54,178.5c-3.14,0-6.21-.46-9.23-1.39-3.02-.92-5.71-2.31-8.08-4.16-2.37-1.85-4.28-4.16-5.73-6.94-1.45-2.78-2.17-6.01-2.17-9.71v-20.63c0-3.78.74-7.06,2.23-9.83,1.49-2.78,3.42-5.07,5.79-6.88,2.37-1.81,5.09-3.16,8.14-4.04,3.06-.88,6.15-1.33,9.29-1.33s6.03.4,8.93,1.21c2.9.81,5.47,2.07,7.72,3.8,2.25,1.73,4.06,3.94,5.43,6.64,1.37,2.7,2.05,5.93,2.05,9.71v14.57c0,2.08-1.69,3.77-3.77,3.77h-28.93v2.78c0,2.41.97,4.24,2.9,5.49,1.93,1.25,4.1,1.87,6.52,1.87,1.93,0,3.8-.38,5.61-1.15.89-.38,1.68-.85,2.37-1.44,1.3-1.1,3.2-1.11,4.57-.11l5.29,3.84c1.73,1.26,2.1,3.72.75,5.39-.69.86-1.44,1.64-2.25,2.33-1.73,1.49-3.58,2.7-5.55,3.62-1.97.93-3.98,1.59-6.03,1.99-2.05.4-4,.6-5.85.6ZM813.1,135.18c0-2.17-.84-3.8-2.53-4.89-1.69-1.09-3.58-1.63-5.67-1.63s-4.16.54-5.97,1.63c-1.81,1.09-2.72,2.76-2.72,5.01v5.55h16.89v-5.67Z"></path><path class="cls-2" d="M451.74,218.16c0,1.22-.14,2.55-.43,3.97-.29,1.43-.77,2.83-1.47,4.21-.69,1.39-1.55,2.69-2.57,3.91-1.02,1.22-2.26,2.24-3.73,3.05,2.69,1.3,4.86,2.89,6.53,4.76,1.67,1.87,2.93,3.87,3.79,5.99.86,2.12,1.36,4.32,1.53,6.6.08.73.12,1.51.12,2.32,0,1.47-.12,2.93-.37,4.4-.41,2.93-1.26,5.72-2.57,8.37-1.3,2.65-3.16,4.97-5.56,6.96-2.4,2-5.4,3.6-8.98,4.82-3.58,1.22-7.86,1.83-12.83,1.83h-34.81v-86.6h34.2c3.74,0,7.27.53,10.57,1.59,3.3,1.06,6.17,2.67,8.61,4.82,2.44,2.16,4.38,4.82,5.8,8,1.42,3.18,2.14,6.84,2.14,10.99ZM424.63,226.71c3.01,0,5.37-.86,7.08-2.57,1.79-1.87,2.69-3.91,2.69-6.11,0-1.79-.73-3.5-2.2-5.13-1.63-1.71-4.15-2.56-7.57-2.56h-16.25v16.37h16.25ZM424.63,261.89c2.77,0,5.11-.49,7.02-1.47,1.91-.98,3.34-2.2,4.28-3.66.94-1.47,1.4-3.05,1.4-4.76s-.47-3.3-1.4-4.76c-.94-1.47-2.34-2.69-4.21-3.66-1.87-.98-4.24-1.47-7.08-1.47h-16.25v19.79h16.25Z"></path><path class="cls-2" d="M491.81,280.58c-3.5,0-6.86-.39-10.08-1.16-3.22-.77-6.05-2.06-8.49-3.85-2.44-1.79-4.4-4.19-5.86-7.21-1.47-3.01-2.2-6.76-2.2-11.24v-41.04h16.98v40.06c0,3.75,1.06,6.41,3.18,8,2.12,1.59,4.6,2.38,7.45,2.38,2.12,0,4.15-.37,6.11-1.1v-49.35h16.86v56.69c0,1.92-1.25,3.61-3.08,4.19-2.56.81-5.28,1.54-8.16,2.2-4.07.94-8.31,1.4-12.7,1.4Z"></path><path class="cls-2" d="M548.48,265.92c2.52,0,4.23-.94,5.13-2.81.32-.81.49-1.63.49-2.44,0-.9-.24-1.79-.73-2.69-1.06-1.55-3.01-2.52-5.86-2.93-3.58-.57-6.66-1.55-9.22-2.93-2.56-1.38-4.7-3.01-6.41-4.89-1.71-1.87-2.99-3.91-3.85-6.11-.85-2.2-1.28-4.44-1.28-6.72,0-2.44.47-4.84,1.4-7.21.94-2.36,2.32-4.46,4.15-6.29,1.83-1.83,4.09-3.3,6.78-4.4,2.69-1.1,5.78-1.65,9.28-1.65,2.85,0,6.11.45,9.77,1.34,3.66.9,7.12,2.65,10.38,5.25l-8.43,11.6c-1.06-1.06-2.56-1.97-4.52-2.75-1.95-.77-3.87-1.16-5.74-1.16-1.39,0-2.65.39-3.79,1.16-1.14.77-1.79,2.1-1.95,3.97-.08.98.18,1.85.79,2.63.61.78,1.36,1.47,2.26,2.08.9.61,1.85,1.12,2.87,1.53,1.02.41,1.85.65,2.5.73,2.03.49,4.11,1.18,6.23,2.08,2.12.9,4.07,2.06,5.86,3.48,1.79,1.43,3.26,3.2,4.4,5.31,1.14,2.12,1.71,4.68,1.71,7.7,0,3.42-.63,6.43-1.89,9.04-1.26,2.61-2.95,4.78-5.07,6.53-2.12,1.75-4.56,3.05-7.33,3.91-2.77.85-5.62,1.28-8.55,1.28-4.4,0-8.53-.79-12.4-2.38-3.87-1.59-7.31-4.38-10.32-8.37l8.06-10.99c2.36,2.28,4.95,4.03,7.76,5.25,2.81,1.22,5.31,1.83,7.51,1.83Z"></path><path class="cls-2" d="M588.66,190.56c2.93,0,5.41,1.02,7.45,3.05,2.03,2.04,3.05,4.52,3.05,7.45s-1.02,5.54-3.05,7.57-4.52,3.05-7.45,3.05-5.4-1.02-7.39-3.05c-2-2.03-2.99-4.56-2.99-7.57s1-5.41,2.99-7.45c1.99-2.03,4.46-3.05,7.39-3.05ZM597.46,279.35h-17.34v-63.15h17.34v63.15Z"></path><path class="cls-2" d="M633.37,214.86c3.58,0,7.02.43,10.32,1.28,3.3.85,6.23,2.2,8.79,4.03,2.56,1.83,4.62,4.21,6.17,7.15,1.55,2.93,2.32,6.47,2.32,10.63v41.41h-16.86v-40.8c0-2.93-1-5.07-2.99-6.41-2-1.34-4.21-2.02-6.66-2.02-2.61,0-4.93.57-6.96,1.71v47.51h-16.98v-59c3.5-1.71,7.21-3.05,11.12-4.03,3.91-.98,7.82-1.47,11.73-1.47Z"></path><path class="cls-2" d="M697.37,280.58c-3.18,0-6.29-.47-9.34-1.4-3.05-.94-5.78-2.34-8.18-4.21-2.4-1.87-4.34-4.21-5.8-7.02-1.47-2.81-2.2-6.09-2.2-9.83v-20.89c0-3.83.75-7.15,2.26-9.95,1.51-2.81,3.46-5.13,5.86-6.96,2.4-1.83,5.15-3.19,8.24-4.09,3.09-.9,6.23-1.34,9.4-1.34s6.11.41,9.04,1.22c2.93.81,5.54,2.1,7.82,3.85,2.28,1.75,4.11,3.99,5.5,6.72,1.38,2.73,2.08,6.01,2.08,9.83v15.62c0,1.63-1.32,2.95-2.95,2.95h-30.15v2.81c0,2.44.98,4.3,2.93,5.56,1.95,1.26,4.15,1.89,6.6,1.89,1.95,0,3.85-.39,5.68-1.16,1.06-.45,1.97-1.03,2.74-1.76,1.02-.96,2.59-1.03,3.72-.21l6.65,4.82c1.32.95,1.62,2.8.66,4.12-.87,1.2-1.83,2.26-2.9,3.17-1.75,1.51-3.62,2.73-5.62,3.66-2,.94-4.03,1.61-6.11,2.02-2.08.41-4.05.61-5.92.61ZM706.04,236.73c0-2.2-.85-3.85-2.56-4.95s-3.62-1.65-5.74-1.65-4.21.55-6.05,1.65c-1.83,1.1-2.75,2.79-2.75,5.07v5.62h17.1v-5.74Z"></path><path class="cls-2" d="M752.46,265.92c2.52,0,4.23-.94,5.13-2.81.32-.81.49-1.63.49-2.44,0-.9-.24-1.79-.73-2.69-1.06-1.55-3.01-2.52-5.86-2.93-3.58-.57-6.66-1.55-9.22-2.93-2.57-1.38-4.7-3.01-6.41-4.89-1.71-1.87-2.99-3.91-3.85-6.11-.85-2.2-1.28-4.44-1.28-6.72,0-2.44.47-4.84,1.4-7.21.94-2.36,2.32-4.46,4.15-6.29,1.83-1.83,4.09-3.3,6.78-4.4,2.69-1.1,5.78-1.65,9.28-1.65,2.85,0,6.11.45,9.77,1.34,3.66.9,7.12,2.65,10.38,5.25l-8.43,11.6c-1.06-1.06-2.56-1.97-4.52-2.75-1.95-.77-3.87-1.16-5.74-1.16-1.39,0-2.65.39-3.79,1.16-1.14.77-1.79,2.1-1.95,3.97-.08.98.18,1.85.79,2.63.61.78,1.36,1.47,2.26,2.08.9.61,1.85,1.12,2.87,1.53,1.02.41,1.85.65,2.5.73,2.03.49,4.11,1.18,6.23,2.08,2.12.9,4.07,2.06,5.86,3.48,1.79,1.43,3.26,3.2,4.4,5.31,1.14,2.12,1.71,4.68,1.71,7.7,0,3.42-.63,6.43-1.89,9.04-1.26,2.61-2.95,4.78-5.07,6.53-2.12,1.75-4.56,3.05-7.33,3.91-2.77.85-5.62,1.28-8.55,1.28-4.4,0-8.53-.79-12.4-2.38-3.87-1.59-7.31-4.38-10.32-8.37l8.06-10.99c2.36,2.28,4.95,4.03,7.76,5.25,2.81,1.22,5.31,1.83,7.51,1.83Z"></path><path class="cls-2" d="M804.24,265.92c2.52,0,4.23-.94,5.13-2.81.32-.81.49-1.63.49-2.44,0-.9-.24-1.79-.73-2.69-1.06-1.55-3.01-2.52-5.86-2.93-3.58-.57-6.66-1.55-9.22-2.93-2.57-1.38-4.7-3.01-6.41-4.89-1.71-1.87-2.99-3.91-3.85-6.11-.85-2.2-1.28-4.44-1.28-6.72,0-2.44.47-4.84,1.4-7.21.94-2.36,2.32-4.46,4.15-6.29,1.83-1.83,4.09-3.3,6.78-4.4,2.69-1.1,5.78-1.65,9.28-1.65,2.85,0,6.11.45,9.77,1.34,3.66.9,7.12,2.65,10.38,5.25l-8.43,11.6c-1.06-1.06-2.56-1.97-4.52-2.75-1.95-.77-3.87-1.16-5.74-1.16-1.39,0-2.65.39-3.79,1.16-1.14.77-1.79,2.1-1.95,3.97-.08.98.18,1.85.79,2.63.61.78,1.36,1.47,2.26,2.08.9.61,1.85,1.12,2.87,1.53,1.02.41,1.85.65,2.5.73,2.03.49,4.11,1.18,6.23,2.08,2.12.9,4.07,2.06,5.86,3.48,1.79,1.43,3.26,3.2,4.4,5.31,1.14,2.12,1.71,4.68,1.71,7.7,0,3.42-.63,6.43-1.89,9.04-1.26,2.61-2.95,4.78-5.07,6.53-2.12,1.75-4.56,3.05-7.33,3.91-2.77.85-5.62,1.28-8.55,1.28-4.4,0-8.53-.79-12.4-2.38-3.87-1.59-7.31-4.38-10.32-8.37l8.06-10.99c2.36,2.28,4.95,4.03,7.76,5.25,2.81,1.22,5.31,1.83,7.51,1.83Z"></path></g></g></g></g></svg>