<svg xmlns="http://www.w3.org/2000/svg" id="Layer_2" data-name="Layer 2" viewBox="0 0 945.02 361.62"><defs><style>      .cls-1 {        fill: #072654;      }      .cls-2 {        fill: #fff;      }      .cls-2, .cls-3 {        fill-rule: evenodd;      }      .cls-4, .cls-3 {        fill: #3395ff;      }    </style></defs><g id="Layer_1-2" data-name="Layer 1"><g><rect class="cls-1" width="945.02" height="361.62" rx="65.09" ry="65.09"></rect><g><g><g><path id="Fill-1" class="cls-2" d="M260.46,130.49c-1.28,4.77-3.76,8.26-7.43,10.5-3.68,2.23-8.84,3.35-15.5,3.35h-21.15l7.42-27.7h21.15c6.65,0,11.22,1.12,13.7,3.35,2.47,2.23,3.08,5.73,1.8,10.5M282.37,129.89c2.69-10.02,1.57-17.72-3.34-23.08-4.92-5.36-13.54-8.04-25.84-8.04h-47.21l-28.41,106.02h22.93l11.46-42.74h15.04c3.37,0,6.03.55,7.97,1.64,1.94,1.09,3.08,3.03,3.44,5.81l4.09,35.29h24.57l-3.99-32.91c-.81-7.35-4.17-11.66-10.08-12.96,7.53-2.18,13.84-5.81,18.92-10.87,5.08-5.06,8.56-11.11,10.45-18.17"></path><path id="Fill-3" class="cls-2" d="M338.11,166.82c-1.91,7.14-4.87,12.61-8.85,16.38-3.99,3.77-8.77,5.66-14.32,5.66s-9.51-1.86-11.53-5.58c-2.03-3.72-2.11-9.11-.21-16.16,1.89-7.05,4.9-12.56,9.04-16.53,4.14-3.97,8.99-5.96,14.55-5.96s9.32,1.91,11.27,5.73c1.95,3.82,1.97,9.31.06,16.45h0ZM348.16,129.3l-2.87,10.72c-1.24-3.87-3.64-6.95-7.2-9.23-3.56-2.28-7.97-3.43-13.23-3.43-6.45,0-12.66,1.67-18.61,4.99-5.95,3.33-11.16,8.02-15.61,14.07-4.45,6.06-7.72,12.96-9.79,20.7-2.08,7.75-2.49,14.57-1.24,20.48,1.25,5.91,3.95,10.45,8.12,13.63,4.16,3.18,9.52,4.76,16.07,4.76,5.26,0,10.27-1.09,15.03-3.28,4.76-2.18,8.79-5.21,12.11-9.08l-3,11.17h22.18l20.23-75.5h-22.19Z"></path><polygon id="Fill-5" class="cls-2" points="450.12 129.3 385.64 129.3 381.14 146.13 418.66 146.13 369.04 189.01 364.81 204.8 431.38 204.8 435.89 187.97 395.69 187.97 446.05 144.49 450.12 129.3"></polygon><path id="Fill-7" class="cls-2" d="M506.89,166.67c-2,7.44-4.95,13.01-8.87,16.68-3.91,3.67-8.65,5.51-14.2,5.51-11.62,0-15.44-7.39-11.48-22.18,1.97-7.35,4.94-12.88,8.91-16.6,3.98-3.73,8.79-5.58,14.45-5.58s9.31,1.86,11.24,5.58c1.93,3.72,1.91,9.25-.06,16.6M519.87,132.12c-5.11-3.17-11.63-4.76-19.57-4.76s-15.49,1.59-22.35,4.76c-6.86,3.18-12.7,7.75-17.52,13.7-4.82,5.96-8.3,12.91-10.43,20.85-2.13,7.94-2.38,14.89-.74,20.85,1.63,5.96,5.02,10.52,10.18,13.7,5.16,3.18,11.75,4.76,19.8,4.76s15.32-1.59,22.13-4.76c6.8-3.18,12.62-7.74,17.44-13.7,4.82-5.96,8.29-12.9,10.43-20.85,2.13-7.94,2.38-14.89.75-20.85-1.64-5.96-5-10.52-10.1-13.7"></path><path id="Fill-9" class="cls-2" d="M751.93,166.82c-1.91,7.14-4.87,12.61-8.85,16.38-3.99,3.77-8.77,5.66-14.33,5.66s-9.5-1.86-11.53-5.58c-2.03-3.72-2.11-9.11-.21-16.16,1.89-7.05,4.9-12.56,9.04-16.53,4.14-3.97,8.99-5.96,14.55-5.96s9.32,1.91,11.27,5.73c1.95,3.82,1.97,9.31.06,16.45h0ZM761.98,129.3l-2.87,10.72c-1.24-3.87-3.64-6.95-7.2-9.23-3.56-2.28-7.97-3.43-13.23-3.43-6.45,0-12.66,1.67-18.61,4.99-5.95,3.33-11.16,8.02-15.61,14.07-4.45,6.06-7.72,12.96-9.79,20.7-2.08,7.75-2.49,14.57-1.24,20.48,1.25,5.91,3.95,10.45,8.12,13.63,4.16,3.18,9.52,4.76,16.07,4.76,5.26,0,10.27-1.09,15.03-3.28,4.76-2.18,8.79-5.21,12.11-9.08l-3,11.17h22.18l20.23-75.5h-22.19Z"></path><path id="Fill-11" class="cls-2" d="M598.98,149.55l5.66-20.55c-1.92-.99-4.47-1.49-7.64-1.49-5.07,0-9.94,1.26-14.64,3.8-4.04,2.17-7.47,5.23-10.37,9.05l2.94-11.07h-6.42s-15.76,0-15.76,0l-20.39,75.5h22.49l10.58-39.46c1.54-5.76,4.3-10.25,8.3-13.48,3.99-3.23,8.96-4.84,14.92-4.84,3.67,0,7.12.85,10.34,2.53"></path><path id="Fill-13" class="cls-2" d="M661.59,167.12c-1.89,7.05-4.82,12.43-8.79,16.16-3.98,3.73-8.75,5.58-14.3,5.58s-9.35-1.88-11.37-5.66c-2.02-3.77-2.07-9.23-.15-16.38,1.92-7.15,4.9-12.63,8.95-16.45,4.05-3.82,8.86-5.73,14.42-5.73s9.17,1.99,11.13,5.96c1.96,3.97,2,9.48.12,16.53M677.3,132.35c-4.17-3.32-9.49-4.99-15.94-4.99-5.66,0-11.05,1.29-16.15,3.87-5.11,2.59-9.26,6.11-12.44,10.58l.07-.5,3.78-12.02h-4.35s-17.61,0-17.61,0l-5.59,20.88c-.06.24-.12.47-.18.71l-23.06,86.07h22.49l11.61-43.33c1.14,3.87,3.51,6.9,7.09,9.08,3.58,2.18,8.01,3.28,13.27,3.28,6.55,0,12.78-1.59,18.7-4.76,5.91-3.17,11.05-7.72,15.41-13.63,4.36-5.9,7.58-12.73,9.66-20.48,2.08-7.74,2.5-14.64,1.3-20.7-1.2-6.05-3.9-10.75-8.07-14.07"></path><path id="Fill-15" class="cls-2" d="M877.29,129.32v-.02s-13.61,0-13.61,0c-.44,0-.82.01-1.22.02h-7.07l-3.61,5.04c-.29.38-.58.76-.89,1.2l-.39.59-28.73,40.01-5.96-46.86h-23.53l11.92,71.21-26.32,36.46h23.45l6.38-9.04c.19-.27.35-.49.55-.77l7.44-10.55.21-.3,33.31-47.21,28.06-39.74.04-.03h-.02Z"></path></g><polygon id="Fill-17" class="cls-3" points="119.77 110.92 113.04 135.69 151.56 110.78 126.37 204.78 151.95 204.8 189.16 65.97 119.77 110.92"></polygon><path id="Fill-19" class="cls-2" d="M78.31,165.28l-10.59,39.51h52.44s21.45-80.36,21.45-80.39c-.02.01-63.3,40.87-63.3,40.87"></path></g><g><path class="cls-4" d="M235.62,287.63l-2.78,8.02h-5.83l10.89-31.52h7.38l11.34,31.52h-6.24l-2.87-8.02h-11.89ZM246.14,282.71c-2.46-7.2-3.97-11.48-4.74-14.17h-.05c-.77,2.96-2.41,8.02-4.42,14.17h9.2,0Z"></path><path class="cls-4" d="M264.59,264.13h21.41v4.92h-15.63v8.56h14.62v4.92h-14.62v13.12h-5.79v-31.52h0Z"></path><path class="cls-4" d="M294.79,264.13h21.41v4.92h-15.63v8.56h14.62v4.92h-14.62v13.12h-5.79v-31.52h0Z"></path><path class="cls-4" d="M330.91,264.13v31.52h-5.92v-31.52h5.92Z"></path><path class="cls-4" d="M342.43,264.13h5.92v26.65h15.95l-.68,4.88h-21.18v-31.52h0Z"></path><path class="cls-4" d="M378.1,264.13v31.52h-5.92v-31.52h5.92Z"></path><path class="cls-4" d="M394.87,287.63l-2.78,8.02h-5.83l10.89-31.52h7.38l11.34,31.52h-6.24l-2.87-8.02h-11.89,0ZM405.39,282.71c-2.46-7.2-3.97-11.48-4.74-14.17h-.05c-.77,2.96-2.41,8.02-4.42,14.17h9.2Z"></path><path class="cls-4" d="M426.71,269.04h-9.75v-4.92h25.42v4.92h-9.75v26.6h-5.92v-26.6h0Z"></path><path class="cls-4" d="M471.39,281.66h-15.26v9.11h16.81l-.73,4.88h-21.86v-31.52h21.73v4.92h-15.94v7.75h15.26v4.88Z"></path><path class="cls-4" d="M496.68,264.13h12.66c6.52,0,10.93,3.64,10.93,9.56,0,6.61-4.92,9.79-11.11,9.79h-6.56v12.16h-5.92v-31.52h0ZM502.6,278.7h5.92c3.55,0,5.79-1.5,5.79-4.88s-2.46-4.92-5.61-4.92h-6.11v9.8h0Z"></path><path class="cls-4" d="M531.89,287.63l-2.78,8.02h-5.83l10.89-31.52h7.38l11.34,31.52h-6.24l-2.87-8.02h-11.89ZM542.41,282.71c-2.46-7.2-3.97-11.48-4.74-14.17h-.05c-.77,2.96-2.41,8.02-4.42,14.17h9.2Z"></path><path class="cls-4" d="M566.69,282.62v13.03h-5.83v-31.52h13.35c6.74,0,10.34,3.69,10.34,8.61,0,4.15-2.32,6.52-4.88,7.43,1.91.59,4.24,2.32,4.24,7.93v1.46c0,2.14,0,4.69.45,6.11h-5.65c-.55-1.37-.59-3.78-.59-6.97v-.55c0-3.78-1-5.51-6.29-5.51h-5.15,0ZM566.69,277.84h6.11c4.1,0,5.74-1.55,5.74-4.51s-1.82-4.42-5.51-4.42h-6.33v8.93h0Z"></path><path class="cls-4" d="M601.22,269.04h-9.75v-4.92h25.42v4.92h-9.75v26.6h-5.93v-26.6h0Z"></path><path class="cls-4" d="M624.86,295.65v-31.52h7.47c4.14,7.2,12.3,20.95,13.85,24.37h.05c-.32-3.55-.32-8.84-.32-13.99v-10.38h5.42v31.52h-7.02c-3.69-6.38-12.48-21.82-14.22-25.42h-.05c.23,3.05.27,9.11.27,14.81v10.61h-5.47,0Z"></path><path class="cls-4" d="M683.9,281.66h-15.26v9.11h16.81l-.73,4.88h-21.86v-31.52h21.73v4.92h-15.94v7.75h15.26v4.88h0Z"></path><path class="cls-4" d="M700.16,282.62v13.03h-5.83v-31.52h13.35c6.74,0,10.34,3.69,10.34,8.61,0,4.15-2.32,6.52-4.88,7.43,1.91.59,4.24,2.32,4.24,7.93v1.46c0,2.14,0,4.69.45,6.11h-5.65c-.55-1.37-.59-3.78-.59-6.97v-.55c0-3.78-1-5.51-6.29-5.51h-5.15,0ZM700.16,277.84h6.11c4.1,0,5.74-1.55,5.74-4.51s-1.82-4.42-5.51-4.42h-6.33v8.93h0Z"></path></g></g></g></g></svg>