<svg xmlns="http://www.w3.org/2000/svg" id="Layer_2" data-name="Layer 2" viewBox="0 0 945.02 361.62"><defs><style>      .cls-1 {        fill: #94be46;      }      .cls-2 {        fill: #fff;      }      .cls-3 {        fill: #231f20;      }      .cls-4 {        fill: #608d3e;      }    </style></defs><g id="Layer_1-2" data-name="Layer 1"><g><rect class="cls-2" width="945.02" height="361.62" rx="65.09" ry="65.09"></rect><g><g><path d="M555.35,237.65l11.84-63.65c1.48-7.77,2.59-14.59,3.33-20.97h5.06l-1.85,12.77h.25c5.3-7.98,12.7-13.62,20.6-13.62,11.22,0,15.42,9.28,15.42,19.03,0,19.98-13.69,42.96-32.56,42.96-5.8,0-9.62-2.06-11.84-2.06h-.25l-4.69,25.55h-5.3ZM566.45,205.4c2.71,2.1,6.66,3.33,11.47,3.33,15.66,0,26.52-22.2,26.52-37.37,0-7.03-2.71-14.92-11.47-14.92s-19.36,10.73-22.69,28.61l-3.82,20.35Z"></path><path d="M650.2,213.7c-.12-4.79.62-9.58,1.48-15.97h-.25c-6.78,12.77-14.31,16.42-22.08,16.42-9,0-14.43-7.76-14.43-18.37,0-20.23,14.43-43.84,37.37-43.84,4.19,0,8.88.52,11.96,1.64l-6.29,32.53c-2.1,11.1-2.84,21.21-2.59,27.6h-5.18ZM658.1,157.3c-1.36-.49-3.45-.86-7.15-.86-17.02,0-30.34,18.99-30.47,37.62-.12,7.77,2.1,14.68,10.11,14.68,9.62,0,20.47-14.43,23.31-29.73l4.19-21.71Z"></path><path d="M668.09,213.7l7.52-40.57c1.48-7.52,2.34-13.71,2.84-20.1h4.81c-.37,4.79-.86,7.98-1.6,14.37h.25c3.58-7.98,9.5-14.92,16.9-14.92.74,0,1.6-.24,2.22-.24l-1.11,5.49c-.49-.12-1.11-.21-1.97-.21-7.77,0-16.4,12.43-18.87,25.38l-5.67,30.81h-5.3Z"></path><path d="M725.32,140.05l-2.59,12.97h13.94l-.99,4.79h-13.94l-6.54,35.14c-.74,3.95-1.23,6.96-1.23,10.17,0,3.45,1.6,5.52,5.3,5.52,1.97,0,3.21-.14,4.32-.51l.37,4.31c-1.6.49-3.7.86-5.8.86-7.03,0-9.74-4.69-9.74-9.62,0-3.21.37-6.16,1.36-10.72l6.66-35.14h-8.51l.86-4.79h8.63l1.97-10.62,5.92-2.35Z"></path><path d="M735.92,213.7l7.89-42.55c1.36-7.03,2.1-13.34,2.59-18.13h5.06l-1.73,12.77h.25c5.18-7.98,12.58-13.68,20.72-13.68,5.8,0,13.2,3.52,13.2,14.74,0,2.96-.49,6.59-1.11,9.79l-6.78,37.05h-5.3l6.91-37.14c.49-2.71.86-5.93.86-9.01,0-6.17-2.47-10.8-9.74-10.8-7.89,0-19.12,10.53-21.71,24.84l-5.8,32.11h-5.3Z"></path><path d="M826.7,208.86c-3.08,2.1-8.76,4.44-16.16,4.44-13.81,0-18.62-10.85-18.62-22.2,0-17.02,11.96-39.35,28.86-39.35,9.74,0,13.81,6.29,13.81,12.95,0,15.05-17.27,19.24-36.63,19.12-.62,2.71-.74,10.48.49,14.8,2.1,6.66,6.66,9.99,12.95,9.99s10.98-2.34,13.69-3.95l1.6,4.19ZM829.26,164.82c0-5.43-3.81-8.39-9.36-8.39-9.13,0-17.21,9.87-20.91,22.7,15.42.12,30.27-2.47,30.27-14.18v-.12Z"></path><path d="M838.17,213.7l7.52-40.57c1.48-7.52,2.34-13.71,2.84-20.1h4.81c-.37,4.79-.86,7.98-1.6,14.37h.25c3.58-7.98,9.5-14.92,16.9-14.92.74,0,1.6-.24,2.22-.24l-1.11,5.49c-.49-.12-1.11-.21-1.97-.21-7.77,0-16.4,12.43-18.87,25.38l-5.67,30.81h-5.3Z"></path><path d="M869.25,205.28c2.1,1.6,6.04,3.33,10.36,3.33,7.77,0,13.07-5.55,13.07-12.33,0-5.92-2.47-9.5-8.02-13.07-5.92-3.82-9.13-9.13-9.13-14.68,0-9.25,7.52-16.77,18.01-16.77,4.07,0,8.02,1.23,9.74,2.59l-1.97,4.56c-1.85-1.11-4.93-2.47-8.39-2.47-7.15,0-11.96,5.06-11.96,11.1,0,5.55,3.21,8.63,8.02,11.96,5.67,3.82,9.13,9.25,9.13,15.29,0,11.96-8.76,18.5-18.99,18.5-5.3,0-9.99-1.97-11.96-3.58l2.1-4.44Z"></path></g><g><g><path class="cls-1" d="M87.84,144.18c-.11,0-.23,0-.35-.03-1.35-.19-2.48-1.41-2.53-2.73-.04-1.29-.83-31.72,17.01-38.64,4.5-1.75,8.59-1.35,12.16,1.17,4.28,3.03,7.41,9.02,9.28,17.79,1.33,6.2,1.54,11.55,1.55,11.77.05,1.32-1.01,2.24-2.36,2.06-1.35-.18-2.49-1.4-2.54-2.72-.21-5.51-2.12-20.77-8.31-25.15-1.98-1.4-4.38-1.53-7.33-.38-15.29,5.93-14.57,34.5-14.56,34.78.04,1.2-.84,2.07-2.02,2.07Z"></path><path class="cls-1" d="M125.93,114.24l-69,21.37s-2.96.84-3.66,1.67c-.76.91-.91,3.38-.91,3.38l-10.67,82.27,80.07,15,6.17-123.77c-.88-.17-1.79.02-2,.07Z"></path><path class="cls-4" d="M149.83,124.88s-.12-.63-.48-.86c-.36-.23-.75-.28-.75-.28l-11.3-.84-8.32-8.26c-.31-.24-.68-.38-1.05-.46l-6.17,123.77,43.39-9.39-15.33-103.68Z"></path><path class="cls-2" d="M97.43,183.01c-1.23-1.65-2.66-3.1-4.16-4.39-1.49-1.27-3.05-2.37-4.58-3.35-1.09-.68-2.04-1.34-2.84-1.98-.8-.64-1.45-1.27-1.97-1.9-.52-.63-.89-1.26-1.14-1.9-.24-.64-.35-1.3-.32-1.99.04-.93.25-1.77.6-2.51.35-.75.86-1.39,1.49-1.94.64-.54,1.42-.98,2.31-1.3.9-.32,1.93-.52,3.06-.59,1.23-.07,2.42-.03,3.55.08,1.14.12,2.23.32,3.24.56,1.02.25,1.96.55,2.8.86.85.32,1.6.65,2.24.95l5.34-15.91c-.79-.41-1.76-.78-2.87-1.09-1.1-.31-2.35-.57-3.71-.74-1.35-.17-2.81-.26-4.37-.26-1.53,0-3.16.11-4.85.33-3.65.48-6.94,1.49-9.81,2.92-2.8,1.4-5.22,3.21-7.22,5.36-1.96,2.11-3.52,4.56-4.62,7.29-1.09,2.7-1.74,5.7-1.88,8.96-.08,1.95.11,3.74.53,5.39.42,1.66,1.08,3.19,1.92,4.6.84,1.43,1.87,2.74,3.03,3.95,1.17,1.23,2.49,2.36,3.88,3.4,1.14.83,2.1,1.61,2.9,2.37.81.76,1.45,1.5,1.94,2.24.49.74.84,1.48,1.04,2.24.21.76.29,1.55.25,2.39-.04.83-.22,1.62-.53,2.31-.32.69-.77,1.29-1.36,1.77-.58.47-1.3.82-2.13,1.01-.83.19-1.78.22-2.84.06-1.2-.18-2.41-.52-3.59-.97-1.16-.45-2.29-.99-3.35-1.58-1.04-.58-2.02-1.21-2.89-1.82-.86-.6-1.62-1.2-2.23-1.72l-3.66,12.13c.61.78,1.38,1.55,2.29,2.3.92.76,1.98,1.49,3.15,2.17,1.19.69,2.49,1.33,3.88,1.89,1.41.57,2.91,1.06,4.46,1.43.03,0,.05.01.08.02.03,0,.05.01.08.02.03,0,.05.01.08.02.03,0,.05.01.08.02,3.31.73,6.53.91,9.53.51,3.09-.41,5.92-1.44,8.37-3.09,2.51-1.69,4.58-4.03,6.09-7,1.53-3.01,2.45-6.64,2.63-10.85.11-2.57-.24-4.91-.95-7.03-.7-2.1-1.73-3.98-2.97-5.65Z"></path><path class="cls-1" d="M71.01,139.98c-.11,0-.23,0-.35-.02-1.32-.19-2.24-1.41-2.05-2.73.19-1.29,4.76-31.72,23.82-38.64,4.81-1.75,8.83-1.35,11.95,1.17,3.75,3.03,5.82,9.02,6.15,17.79.23,6.2-.49,11.55-.53,11.77-.18,1.32-1.4,2.24-2.72,2.06-1.32-.18-2.24-1.4-2.06-2.72.76-5.51,1.54-20.77-3.87-25.14-1.73-1.4-4.11-1.53-7.26-.38-16.34,5.93-20.65,34.5-20.69,34.78-.17,1.2-1.21,2.07-2.39,2.07Z"></path></g><path class="cls-3" d="M215.74,177.55c-4.33-2.35-6.55-4.33-6.55-7.05,0-3.46,3.09-5.69,7.91-5.69,4.45,0,8.28,1.24,10.63,2.35l3.96-12.12c-2.72-1.61-7.79-2.84-14.34-2.84-14.96,0-25.22,8.53-25.22,20.52,0,6.8,4.82,11.99,11.25,15.7,5.19,2.97,7.05,5.07,7.05,8.16s-2.6,5.81-7.42,5.81c-5.32.12-10.88-2.1-13.97-3.71l-4.2,12.12c3.21,2.22,9.77,4.08,16.81,4.2,15.33.12,26.33-7.54,26.33-21.14,0-7.29-5.56-12.49-12.24-16.32Z"></path><path class="cls-3" d="M276.81,152.08c-7.54,0-13.48,3.58-18.05,9.02l-.25-.12,6.55-34.25h-17.06l-16.57,87.16h17.06l5.69-29.79c2.23-11.25,8.04-18.17,13.48-18.17,3.83,0,5.32,2.6,5.32,6.31,0,2.35-.25,5.19-.74,7.54l-6.43,34.12h17.06l6.68-35.23c.74-3.71,1.24-8.16,1.24-11.13,0-9.64-5.07-15.45-13.97-15.45Z"></path><path class="cls-3" d="M329.35,152.08c-20.52,0-34.12,18.54-34.12,39.19,0,13.23,8.16,23.86,23.49,23.86,20.15,0,33.75-18.05,33.75-39.19,0-12.24-7.17-23.86-23.12-23.86ZM320.95,202.03c-5.81,0-8.28-4.95-8.28-11.13,0-9.77,5.07-25.72,14.34-25.72,6.06,0,8.04,5.19,8.04,10.26,0,10.51-5.07,26.58-14.09,26.58Z"></path><path class="cls-3" d="M396.11,152.08c-6.8,0-13.48,3.71-18.05,10.14h-.25l.99-9.15h-15.08c-.74,6.18-2.1,15.58-3.46,22.62l-11.87,62.43h17.06l4.7-25.22h.37c1.98,1.24,5.81,2.22,10.01,2.22,20.03,0,33.13-20.52,33.13-41.29,0-11.5-5.07-21.76-17.55-21.76ZM379.79,202.27c-3.09,0-5.19-.99-7.05-2.47l2.84-15.95c1.98-10.63,7.54-17.68,13.48-17.68,5.19,0,6.8,4.82,6.8,9.4,0,11-6.55,26.7-16.07,26.7Z"></path><path class="cls-3" d="M438.02,127.6c-5.44,0-9.77,4.33-9.77,9.89,0,5.07,3.21,8.53,8.04,8.53h.25c5.32,0,9.89-3.59,10.01-9.89,0-4.95-3.34-8.53-8.53-8.53Z"></path><polygon class="cls-3" points="414.16 213.89 431.22 213.89 442.85 153.44 425.66 153.44 414.16 213.89"></polygon><path class="cls-3" d="M486.24,153.32h-11.87l.62-2.84c.99-5.81,4.45-11,10.14-11,2.23,0,3.96.37,5.44.87l3.34-13.35c-1.98-.87-5.07-1.48-9.27-1.48-6.06,0-12.12,1.73-16.69,5.69-5.81,4.95-8.53,12.12-9.89,19.29l-.49,2.84h-7.91l-2.47,12.86h7.91l-9.03,47.72h17.06l9.02-47.72h11.75l2.35-12.86Z"></path><path class="cls-3" d="M527.28,153.44l-10.38,27.07c-2.47,6.55-3.71,10.39-5.07,14.47h-.25c-.25-3.96-.74-8.28-1.48-14.34l-2.72-27.2h-17.93l10.26,55.51c.25,1.24.12,1.98-.37,2.84-1.98,3.83-5.32,7.54-9.27,10.26-3.21,2.35-6.8,3.83-9.64,4.82l4.7,14.47c3.46-.74,10.63-3.59,16.69-9.27,7.79-7.29,14.96-18.54,22.38-33.87l20.89-44.75h-17.8Z"></path></g></g></g></g></svg>